<svg xmlns="http://www.w3.org/2000/svg" viewBox="0 0 900 700" role="img" aria-label="Fast chargers and cables product display">
  <defs>
    <linearGradient id="bg" x1="0" x2="1" y1="0" y2="1"><stop stop-color="#f8f8f5"/><stop offset=".54" stop-color="#d6dbe1"/><stop offset="1" stop-color="#15171c"/></linearGradient>
    <linearGradient id="plug" x1="0" x2="1" y1="0" y2="1"><stop stop-color="#fff"/><stop offset=".5" stop-color="#d8dde4"/><stop offset="1" stop-color="#8e959f"/></linearGradient>
    <filter id="shadow" x="-30%" y="-25%" width="160%" height="170%"><feDropShadow dx="0" dy="30" stdDeviation="28" flood-color="#000" flood-opacity=".3"/></filter>
    <filter id="blur"><feGaussianBlur stdDeviation="22"/></filter>
  </defs>
  <rect width="900" height="700" rx="42" fill="url(#bg)"/>
  <circle cx="190" cy="116" r="150" fill="#fff" opacity=".28" filter="url(#blur)"/>
  <ellipse cx="470" cy="598" rx="360" ry="64" fill="#000" opacity=".24" filter="url(#blur)"/>
  <g filter="url(#shadow)">
    <rect x="240" y="178" width="178" height="270" rx="44" fill="url(#plug)"/>
    <rect x="282" y="128" width="28" height="76" rx="8" fill="#15171c"/>
    <rect x="348" y="128" width="28" height="76" rx="8" fill="#15171c"/>
    <rect x="294" y="312" width="70" height="30" rx="15" fill="#15171c" opacity=".8"/>
    <rect x="480" y="220" width="154" height="230" rx="42" fill="#12151a"/>
    <rect x="526" y="176" width="26" height="70" rx="8" fill="#f5f5f2"/>
    <rect x="584" y="176" width="26" height="70" rx="8" fill="#f5f5f2"/>
    <rect x="514" y="318" width="86" height="28" rx="14" fill="#f5f5f2" opacity=".88"/>
    <path d="M360 486c62 58 128 86 196 78 88-11 138-82 92-138-43-52-130-34-150 18-23 60 52 118 168 95" fill="none" stroke="#f5f5f2" stroke-width="22" stroke-linecap="round"/>
    <path d="M358 486c62 58 128 86 196 78 88-11 138-82 92-138-43-52-130-34-150 18-23 60 52 118 168 95" fill="none" stroke="#15171c" stroke-width="10" stroke-linecap="round"/>
    <rect x="660" y="510" width="86" height="36" rx="14" fill="#f5f5f2"/>
  </g>
</svg>
