<svg xmlns="http://www.w3.org/2000/svg" viewBox="0 0 900 700" role="img" aria-label="Tempered glass screen protector product display">
  <defs>
    <linearGradient id="bg" x1="0" x2="1" y1="0" y2="1"><stop stop-color="#f8f8f5"/><stop offset=".5" stop-color="#cbd2da"/><stop offset="1" stop-color="#101216"/></linearGradient>
    <linearGradient id="glass" x1="0" x2="1" y1="0" y2="1"><stop stop-color="#fff" stop-opacity=".75"/><stop offset=".46" stop-color="#dce8f4" stop-opacity=".22"/><stop offset="1" stop-color="#ffffff" stop-opacity=".08"/></linearGradient>
    <filter id="shadow" x="-30%" y="-25%" width="160%" height="170%"><feDropShadow dx="0" dy="30" stdDeviation="28" flood-color="#000" flood-opacity=".31"/></filter>
    <filter id="blur"><feGaussianBlur stdDeviation="20"/></filter>
  </defs>
  <rect width="900" height="700" rx="42" fill="url(#bg)"/>
  <circle cx="176" cy="116" r="150" fill="#fff" opacity=".24" filter="url(#blur)"/>
  <ellipse cx="460" cy="598" rx="330" ry="62" fill="#000" opacity=".28" filter="url(#blur)"/>
  <g filter="url(#shadow)">
    <rect x="338" y="108" width="248" height="480" rx="54" fill="#111318"/>
    <rect x="362" y="138" width="200" height="420" rx="34" fill="#dce5ee" opacity=".18"/>
    <rect x="388" y="158" width="148" height="15" rx="8" fill="#0a0c10"/>
    <g transform="translate(255 138) rotate(-11 124 230)">
      <rect x="0" y="0" width="248" height="480" rx="54" fill="url(#glass)" stroke="#fff" stroke-opacity=".72" stroke-width="7"/>
      <path d="M50 90h148M48 132h154M54 174h132" stroke="#fff" stroke-opacity=".33" stroke-width="9" stroke-linecap="round"/>
      <path d="M34 388c59-84 121-126 180-126" stroke="#fff" stroke-opacity=".42" stroke-width="10" stroke-linecap="round"/>
    </g>
    <rect x="578" y="398" width="150" height="86" rx="24" fill="#f6f6f3"/>
    <path d="M610 430h82M610 458h54" stroke="#111318" stroke-opacity=".55" stroke-width="12" stroke-linecap="round"/>
  </g>
</svg>
