<svg xmlns="http://www.w3.org/2000/svg" viewBox="0 0 900 560" role="img" aria-label="Realistic display of imported iPhone cases">
  <defs>
    <linearGradient id="bg" x1="0" x2="1" y1="0" y2="1">
      <stop stop-color="#f8fafc"/>
      <stop offset=".46" stop-color="#cfd7e3"/>
      <stop offset="1" stop-color="#14171d"/>
    </linearGradient>
    <linearGradient id="phone" x1="0" x2="1" y1="0" y2="1">
      <stop stop-color="#f7f7f4"/>
      <stop offset=".52" stop-color="#d7dce4"/>
      <stop offset="1" stop-color="#0e1117"/>
    </linearGradient>
    <linearGradient id="case1" x1="0" x2="1" y1="0" y2="1">
      <stop stop-color="#111827"/>
      <stop offset="1" stop-color="#475569"/>
    </linearGradient>
    <linearGradient id="case2" x1="0" x2="1" y1="0" y2="1">
      <stop stop-color="#f8f1de"/>
      <stop offset="1" stop-color="#c6a460"/>
    </linearGradient>
    <filter id="shadow" x="-20%" y="-20%" width="140%" height="150%">
      <feDropShadow dx="0" dy="24" stdDeviation="24" flood-color="#000" flood-opacity=".28"/>
    </filter>
  </defs>
  <rect width="900" height="560" rx="34" fill="url(#bg)"/>
  <rect x="0" y="388" width="900" height="172" fill="#0b0d11" opacity=".86"/>
  <ellipse cx="450" cy="446" rx="330" ry="48" fill="#000" opacity=".24"/>

  <g filter="url(#shadow)">
    <rect x="340" y="52" width="220" height="414" rx="48" fill="#0b0d11"/>
    <rect x="356" y="70" width="188" height="378" rx="36" fill="url(#phone)"/>
    <rect x="411" y="88" width="78" height="17" rx="9" fill="#0b0d11"/>
    <circle cx="389" cy="128" r="24" fill="#111827"/>
    <circle cx="389" cy="128" r="12" fill="#273244"/>
    <circle cx="424" cy="129" r="17" fill="#111827"/>
    <circle cx="424" cy="129" r="8" fill="#273244"/>
    <circle cx="389" cy="164" r="17" fill="#111827"/>
    <circle cx="389" cy="164" r="8" fill="#273244"/>
  </g>

  <g filter="url(#shadow)">
    <rect x="139" y="144" width="166" height="300" rx="42" fill="url(#case1)"/>
    <rect x="160" y="165" width="124" height="258" rx="30" fill="none" stroke="#f8fafc" stroke-width="14" opacity=".92"/>
    <rect x="173" y="184" width="48" height="76" rx="22" fill="#0b0d11"/>
    <circle cx="196" cy="207" r="12" fill="#475569"/>
    <circle cx="196" cy="238" r="12" fill="#475569"/>
  </g>

  <g filter="url(#shadow)">
    <rect x="601" y="144" width="166" height="300" rx="42" fill="url(#case2)"/>
    <rect x="622" y="165" width="124" height="258" rx="30" fill="none" stroke="#fff8e7" stroke-width="14" opacity=".96"/>
    <rect x="635" y="184" width="48" height="76" rx="22" fill="#6f5a2a"/>
    <circle cx="658" cy="207" r="12" fill="#d9be77"/>
    <circle cx="658" cy="238" r="12" fill="#d9be77"/>
  </g>

  <g fill="none" stroke-linecap="round" stroke-width="14" opacity=".72">
    <path d="M92 92h120M92 129h88" stroke="#f8fafc"/>
    <path d="M686 92h130M728 129h88" stroke="#111827"/>
  </g>
</svg>
