<svg xmlns="http://www.w3.org/2000/svg" viewBox="0 0 900 620" role="img" aria-label="Android accessories collection">
  <defs>
    <linearGradient id="a" x1="0" x2="1" y1="0" y2="1"><stop stop-color="#f8fff1"/><stop offset=".45" stop-color="#9cc986"/><stop offset="1" stop-color="#111318"/></linearGradient>
    <filter id="s"><feDropShadow dx="0" dy="22" stdDeviation="24" flood-opacity=".3"/></filter>
  </defs>
  <rect width="900" height="620" rx="34" fill="#15171c"/>
  <path d="M0 480c158-88 308-122 451-102 158 23 289-25 449-134v376H0Z" fill="#fff" opacity=".08"/>
  <g filter="url(#s)">
    <rect x="332" y="90" width="236" height="430" rx="42" fill="#f6f6f3"/>
    <rect x="356" y="120" width="188" height="372" rx="28" fill="url(#a)"/>
  </g>
  <rect x="122" y="400" width="178" height="96" rx="30" fill="#f6f6f3"/>
  <rect x="600" y="400" width="178" height="96" rx="30" fill="#f6f6f3"/>
  <path d="M164 205h110M144 264h146M178 323h88M632 205h116M614 264h150M646 323h94" stroke="#f6f6f3" stroke-width="18" stroke-linecap="round" opacity=".82"/>
</svg>
